<svg width="32" height="32" viewBox="0 0 32 32" fill="none" xmlns="http://www.w3.org/2000/svg">
  <rect width="32" height="32" rx="8" fill="url(#gradient)"/>
  <path d="M10 24V8h4.5c1.933 0 3.5 1.567 3.5 3.5 0 .933-.367 1.8-.967 2.433.6.633.967 1.5.967 2.433 0 1.933-1.567 3.5-3.5 3.5H10zm3-7h1.5c.55 0 1-.45 1-1s-.45-1-1-1H13v2zm0 4h1.5c.55 0 1-.45 1-1s-.45-1-1-1H13v2z" fill="white"/>
  <circle cx="24" cy="8" r="3" fill="#10B981"/>
  <defs>
    <linearGradient id="gradient" x1="0" y1="0" x2="32" y2="32" gradientUnits="userSpaceOnUse">
      <stop stop-color="#3B82F6"/>
      <stop offset="0.5" stop-color="#8B5CF6"/>
      <stop offset="1" stop-color="#6366F1"/>
    </linearGradient>
  </defs>
</svg>